<svg xmlns="http://www.w3.org/2000/svg" xmlns:xlink="http://www.w3.org/1999/xlink" width="32" height="224" viewBox="0 0 32 224"><svg width="32" height="32" viewBox="0 0 32 32" id="home2" y="0"><path d="M32 19l-6-6V4h-4v5l-6-6L0 19v1h4v10h10v-6h4v6h10V20h4z"/></svg>
<svg width="32" height="32" viewBox="0 0 32 32" id="home3" y="32"><path d="M16 2L0 18l3 3 3-3 2 12h6v-6h4v6h6l2-12 3 3 3-3L16 2zm0 12.828c-1.562 0-2.83-1.266-2.83-2.828S14.438 9.172 16 9.172c1.562 0 2.828 1.266 2.828 2.828S17.562 14.828 16 14.828z"/></svg>
<svg width="32" height="32" viewBox="0 0 32 32" id="newspaper" y="64"><path d="M28 8V4H0v22c0 1.105.895 2 2 2h27c1.657 0 3-1.343 3-3V8h-4zm-2 18H2V6h24v20zM4 10h20v2H4zm12 4h8v2h-8zm0 4h8v2h-8zm0 4h6v2h-6zM4 14h10v10H4z"/></svg>
<svg width="32" height="32" viewBox="0 0 32 32" id="office" y="96"><path d="M0 32h16V0H0v32zM10 4h4v4h-4V4zm0 8h4v4h-4v-4zm0 8h4v4h-4v-4zM2 4h4v4H2V4zm0 8h4v4H2v-4zm0 8h4v4H2v-4zm16-10h14v2H18zm0 22h4v-8h6v8h4V14H18z"/></svg>
<svg width="32" height="32" viewBox="0 0 32 32" id="pencil" y="128"><path d="M27 0c2.76 0 5 2.24 5 5 0 1.126-.372 2.164-1 3l-2 2-7-7 2-2c.836-.628 1.874-1 3-1zM2 23l-2 9 9-2 18.5-18.5-7-7L2 23zm20.362-11.638l-14 14-1.724-1.724 14-14 1.724 1.724z"/></svg>
<svg width="32" height="32" viewBox="0 0 32 32" id="pencil2" y="160"><path d="M12 20l4-2L30 4l-2-2-14 14-2 4zm-2.96 7.097c-.988-2.085-2.05-3.15-4.136-4.137L8 14.435 12 12 24 0h-6L6 12 0 32l20-6 12-12V8L20 20l-2.434 4z"/></svg>
<svg width="32" height="32" viewBox="0 0 32 32" id="quill" y="192"><path d="M12 18.333s6.373-3.824 9.96-2.313c.745-1.133 1.478-2.354 2.195-3.6-3.51-.86-8.155-.087-8.155-.087s5.944-3.566 9.583-2.45c.73-1.316 1.44-2.614 2.124-3.822-2.9-.195-5.707.273-5.707.273S25.723 4.1 29.08 3.72C30.138 2.008 31.12.663 32 0 14.47 0 4 20 0 32h2l6-10s2 2 8 0c1.42-.474 2.842-1.79 4.237-3.56-3.52-.892-8.237-.106-8.237-.106z"/></svg>
</svg>